<mxfile host="app.diagrams.net" modified="2020-11-02T20:18:39.652Z" agent="5.0 (Windows NT 10.0; Win64; x64) AppleWebKit/537.36 (KHTML, like Gecko) Chrome/86.0.4240.111 Safari/537.36" etag="0N_IfwRayNlcXg93QqB2" version="13.8.8" type="github">
  <diagram id="-U4UKcJp5ZBxgHHFnh-F" name="Page-1">
    <mxGraphModel dx="372" dy="534" grid="1" gridSize="10" guides="1" tooltips="1" connect="1" arrows="1" fold="1" page="1" pageScale="1" pageWidth="827" pageHeight="1169" math="0" shadow="0">
      <root>
        <mxCell id="0" />
        <mxCell id="1" parent="0" />
        <mxCell id="dGDr8gCfgLWDT8snaEA5-5" value="" style="verticalLabelPosition=bottom;html=1;verticalAlign=top;align=center;strokeColor=none;shape=mxgraph.azure.cloud;fillColor=#00BEF2;" vertex="1" parent="1">
          <mxGeometry x="140" y="117.5" width="50" height="32.5" as="geometry" />
        </mxCell>
        <mxCell id="dGDr8gCfgLWDT8snaEA5-1" value="" style="verticalLabelPosition=bottom;html=1;verticalAlign=top;align=center;strokeColor=none;shape=mxgraph.azure.cloud;fillColor=#00BEF2;" vertex="1" parent="1">
          <mxGeometry x="130" y="80" width="50" height="32.5" as="geometry" />
        </mxCell>
        <mxCell id="dGDr8gCfgLWDT8snaEA5-2" value="" style="html=1;verticalLabelPosition=bottom;align=center;labelBackgroundColor=#ffffff;verticalAlign=top;strokeWidth=2;shadow=0;dashed=0;shape=mxgraph.ios7.icons.clock;strokeColor=#00BEF2;" vertex="1" parent="1">
          <mxGeometry x="110" y="100" width="50" height="50" as="geometry" />
        </mxCell>
        <mxCell id="dGDr8gCfgLWDT8snaEA5-4" value="" style="verticalLabelPosition=bottom;html=1;verticalAlign=top;align=center;strokeColor=none;shape=mxgraph.azure.cloud;fillColor=#00BEF2;" vertex="1" parent="1">
          <mxGeometry x="90" y="130" width="50" height="32.5" as="geometry" />
        </mxCell>
        <mxCell id="dGDr8gCfgLWDT8snaEA5-6" value="" style="verticalLabelPosition=bottom;html=1;verticalAlign=top;align=center;strokeColor=none;shape=mxgraph.azure.cloud;fillColor=#00BEF2;" vertex="1" parent="1">
          <mxGeometry x="80" y="90" width="50" height="32.5" as="geometry" />
        </mxCell>
      </root>
    </mxGraphModel>
  </diagram>
</mxfile>
